<svg class="signature" xmlns="http://www.w3.org/2000/svg" viewBox="0 0 111.63805 67.900602">
    <g fill="none" stroke="#272727" stroke-width="2.00001" stroke-linecap="round" stroke-linejoin="round">
      <path class="p-trace" d="M23.9546 15.0796c-.0886 11.30213.10123 23.0295 1.08432 34.28598"/>
      <path class="p-curve" d="M1.0032 23.85454C4.34146 9.00016 24.4617-2.20518 37.02288 1.84594c16.69483 6.0052-9.59792 32.01875-22.43986 33.1403"/>
      <path class="b-trace" d="M43.89584 25.677c-.19287 7.72194-.20513 15.44436-.12522 23.17015"/>
      <path class="b-curve" d="M30.09287 31.65758c4.78154-7.20226 16.12327-13.3814 19.6232-7.68266 3.8875 6.32988-8.5146 14.5914-8.5146 14.5914s10.011-4.79337 14.63797-4.62097c16.7567.62433 8.66683 18.603-1.7311 26.65296-14.0577 10.88337-34.4371 8.0094-22.74177-11.62283"/>
      <path class="r-i" d="M66.81248 36.56834s2.67582-.58198 3.4828 1.60587c.78087 2.11706-1.06154 8.7814-1.57378 6.58386-1.52502-6.54232 6.63723-18.30393 9.41375-7.02977"/>
      <path class="i-dot" d="M75.15205 24.77565l-.2461.58063"/>
      <path class="t-1" d="M86.5609 5.71553c-2.21904 16.11577-4.03364 33.12552-3.3194 49.47338"/>
      <path class="t-2" d="M90.01164 4.22038c-2.01795 16.11653-1.85022 32.77407-1.68146 49.09158"/>
      <path class="t-dash-o" d="M73.49252 47.44517c2.22047-4.714 27.68095-20.9854 28.62307-19.4514-3.6607 2.27103-3.56445 11.59818-.39635 14.59866 2.96417 2.80735 9.6349-.7389 8.8571-7.93617-.6371-5.89523-5.94857-10.04314-9.72357-5.54567"/>
    </g>
</svg>
